<svg width="24" height="24" viewBox="0 0 24 24" fill="none" xmlns="http://www.w3.org/2000/svg">
<path d="M18.9331 10.5375C18.3206 15.3737 12.4375 22.9102 11.4866 22.8694C10.5332 22.8285 4.50065 15.433 4.04001 10.5375C3.59837 5.84385 6.85989 2 11.4866 2C16.1133 2 19.5253 5.86113 18.9331 10.5375ZM11.4901 3.89722C8.02011 3.89722 5.4555 7.05463 5.90526 10.8824C6.34014 14.5836 10.7751 20.5631 11.4901 20.5965C12.2035 20.6298 16.6447 14.3319 17.0751 10.8824C17.552 7.06042 14.9602 3.89722 11.4901 3.89722ZM11.5011 14.3319C9.43277 14.3319 7.75598 12.6331 7.75598 10.5375C7.75598 8.44189 9.43274 6.74304 11.5011 6.74304C13.5694 6.74304 15.2462 8.44189 15.2462 10.5375C15.2462 12.6331 13.5694 14.3319 11.5011 14.3319ZM11.5011 8.64026C10.4669 8.64026 9.62853 9.48964 9.62853 10.5375C9.62853 11.5853 10.4669 12.4347 11.5011 12.4347C12.5353 12.4347 13.3736 11.5853 13.3736 10.5375C13.3736 9.48964 12.5353 8.64026 11.5011 8.64026Z" fill="#566A96"/>
</svg>
