<svg width="46" height="46" viewBox="0 0 46 46" fill="none" xmlns="http://www.w3.org/2000/svg">
<g filter="url(#filter0_if_346_210)">
<rect x="1" y="1" width="44" height="44" rx="10" fill="#F3F8FB"/>
</g>
<rect x="7" y="10" width="32" height="25" fill="white"/>
<path d="M38.642 29.2418C38.3796 29.597 38.0728 29.9538 37.7155 30.2931C36.6787 31.2776 35.2196 32.1091 33.1962 32.3302C32.8515 32.3679 32.4909 32.3881 32.1133 32.3881C30.5845 32.3881 29.1701 32.104 27.9059 31.5393M38.642 29.2418L28.0078 31.311M38.642 29.2418V34.658H7.55038V25.7831C7.56233 25.7628 7.57926 25.7363 7.60254 25.7023C7.63031 25.6617 7.66131 25.6185 7.69657 25.5694C7.7136 25.5457 7.73162 25.5207 7.75075 25.4938L7.54715 25.3487L7.75075 25.4938C8.10212 25.0007 8.71886 24.2153 9.58489 23.4396C11.4368 21.7808 13.4705 20.9505 15.6379 20.9505C17.7756 20.9505 19.637 21.7884 21.1823 23.4569C22.2629 24.6238 22.8064 25.8139 22.8935 26.0139C22.9921 26.3205 23.4978 27.756 24.7479 29.1903C25.5574 30.1191 26.5151 30.8607 27.5945 31.3933M27.9059 31.5393L28.0078 31.311M27.9059 31.5393C27.9059 31.5393 27.9059 31.5393 27.9059 31.5393L28.0078 31.311M27.9059 31.5393C27.8014 31.4926 27.6975 31.4441 27.5945 31.3933M28.0078 31.311C27.9059 31.2655 27.8049 31.2183 27.7051 31.1691M27.5945 31.3933L27.7051 31.1691M27.5945 31.3933C27.5945 31.3933 27.5945 31.3933 27.5945 31.3933L27.7051 31.1691" fill="#566A96" stroke="#566A96" stroke-width="0.5"/>
<path d="M27.8592 18.5836C27.8592 19.676 28.2734 20.7236 29.0107 21.496C29.748 22.2684 30.748 22.7024 31.7908 22.7024C32.8335 22.7024 33.8335 22.2684 34.5708 21.496C35.3081 20.7236 35.7223 19.676 35.7223 18.5836C35.7223 17.4912 35.3081 16.4436 34.5708 15.6712C33.8335 14.8988 32.8335 14.4648 31.7908 14.4648C30.748 14.4648 29.748 14.8988 29.0107 15.6712C28.2734 16.4436 27.8592 17.4912 27.8592 18.5836Z" fill="white" stroke="#566A96" stroke-width="2"/>
<defs>
<filter id="filter0_if_346_210" x="0.5" y="0.5" width="48.5" height="48.5" filterUnits="userSpaceOnUse" color-interpolation-filters="sRGB">
<feFlood flood-opacity="0" result="BackgroundImageFix"/>
<feBlend mode="normal" in="SourceGraphic" in2="BackgroundImageFix" result="shape"/>
<feColorMatrix in="SourceAlpha" type="matrix" values="0 0 0 0 0 0 0 0 0 0 0 0 0 0 0 0 0 0 127 0" result="hardAlpha"/>
<feOffset dx="4" dy="4"/>
<feGaussianBlur stdDeviation="2"/>
<feComposite in2="hardAlpha" operator="arithmetic" k2="-1" k3="1"/>
<feColorMatrix type="matrix" values="0 0 0 0 0.864125 0 0 0 0 0.910238 0 0 0 0 0.93 0 0 0 0.25 0"/>
<feBlend mode="normal" in2="shape" result="effect1_innerShadow_346_210"/>
<feGaussianBlur stdDeviation="0.25" result="effect2_foregroundBlur_346_210"/>
</filter>
</defs>
</svg>
