<svg width="46" height="46" viewBox="0 0 46 46" fill="none" xmlns="http://www.w3.org/2000/svg">
<g filter="url(#filter0_if_346_215)">
<rect x="1" y="1" width="44" height="44" rx="10" fill="#F3F8FB"/>
</g>
<mask id="path-2-inside-1_346_215" fill="white">
<path fill-rule="evenodd" clip-rule="evenodd" d="M26.0153 9.61297C25.9743 9.35569 25.9163 9.10722 25.8428 8.86926H28.9277C29.1067 8.86926 29.2518 8.73539 29.2518 8.57027C29.2518 8.40515 29.1067 8.27128 28.9277 8.27126H25.6162C24.9928 6.89837 23.8169 6 22.5 6C21.1832 6 20.0073 6.89837 19.3839 8.27126H16.0731C15.8941 8.27126 15.749 8.40515 15.749 8.57027C15.749 8.73539 15.8941 8.86926 16.0731 8.86926H19.1574C19.0839 9.10722 19.0258 9.35569 18.9848 9.61297L18.8246 10.6171C13.8199 11.694 12.8104 14.9245 12.8104 17.3411C12.8104 18.3633 13.086 19.708 13.4856 20.6403C13.4858 20.761 13.4882 20.8824 13.4927 21.0043C13.1753 20.7826 12.8668 20.7011 12.6084 20.7917C11.8644 21.0586 11.7645 22.6474 12.3815 24.34C12.9918 26.0149 14.0773 27.1623 14.8163 26.9234C14.866 26.9357 14.9149 26.9437 14.963 26.9473C15.6021 28.379 16.4115 29.6361 17.3394 30.6431C17.1865 30.5817 17.0031 30.6027 16.8711 30.7125C16.7786 30.7898 16.7259 30.8996 16.7259 31.0134V32.4464L11 34.5556C14.2352 36.6987 18.2068 37.9634 22.4998 37.9634C26.7932 37.9634 30.7645 36.6987 34 34.5556L28.2742 32.4464V31.0134C28.2742 30.8996 28.2212 30.7898 28.1288 30.7084C28.0209 30.6186 27.8782 30.5882 27.7461 30.6139C28.6673 29.6033 29.4725 28.3478 30.1132 26.9292C30.1304 26.9255 30.1478 26.9213 30.1652 26.9165C30.9047 27.1787 32.0041 26.0301 32.6202 24.34C33.2369 22.6518 33.1325 21.0633 32.3934 20.7917C32.2047 20.7252 31.9949 20.7491 31.7738 20.8484L31.8117 20.7674C32.2415 19.8336 32.5433 18.4107 32.5433 17.3411C32.5433 14.8668 31.4849 11.537 26.1636 10.5426L26.0153 9.61297ZM26.5148 31.7614C25.3041 32.705 23.9565 33.2472 22.5551 33.2472C21.0118 33.2472 19.5282 32.6058 18.2214 31.4936L22.3117 35.696C22.3741 35.6974 22.4369 35.6981 22.4998 35.6981C22.5628 35.6981 22.6255 35.6974 22.688 35.696L26.5148 31.7614Z"/>
</mask>
<path fill-rule="evenodd" clip-rule="evenodd" d="M26.0153 9.61297C25.9743 9.35569 25.9163 9.10722 25.8428 8.86926H28.9277C29.1067 8.86926 29.2518 8.73539 29.2518 8.57027C29.2518 8.40515 29.1067 8.27128 28.9277 8.27126H25.6162C24.9928 6.89837 23.8169 6 22.5 6C21.1832 6 20.0073 6.89837 19.3839 8.27126H16.0731C15.8941 8.27126 15.749 8.40515 15.749 8.57027C15.749 8.73539 15.8941 8.86926 16.0731 8.86926H19.1574C19.0839 9.10722 19.0258 9.35569 18.9848 9.61297L18.8246 10.6171C13.8199 11.694 12.8104 14.9245 12.8104 17.3411C12.8104 18.3633 13.086 19.708 13.4856 20.6403C13.4858 20.761 13.4882 20.8824 13.4927 21.0043C13.1753 20.7826 12.8668 20.7011 12.6084 20.7917C11.8644 21.0586 11.7645 22.6474 12.3815 24.34C12.9918 26.0149 14.0773 27.1623 14.8163 26.9234C14.866 26.9357 14.9149 26.9437 14.963 26.9473C15.6021 28.379 16.4115 29.6361 17.3394 30.6431C17.1865 30.5817 17.0031 30.6027 16.8711 30.7125C16.7786 30.7898 16.7259 30.8996 16.7259 31.0134V32.4464L11 34.5556C14.2352 36.6987 18.2068 37.9634 22.4998 37.9634C26.7932 37.9634 30.7645 36.6987 34 34.5556L28.2742 32.4464V31.0134C28.2742 30.8996 28.2212 30.7898 28.1288 30.7084C28.0209 30.6186 27.8782 30.5882 27.7461 30.6139C28.6673 29.6033 29.4725 28.3478 30.1132 26.9292C30.1304 26.9255 30.1478 26.9213 30.1652 26.9165C30.9047 27.1787 32.0041 26.0301 32.6202 24.34C33.2369 22.6518 33.1325 21.0633 32.3934 20.7917C32.2047 20.7252 31.9949 20.7491 31.7738 20.8484L31.8117 20.7674C32.2415 19.8336 32.5433 18.4107 32.5433 17.3411C32.5433 14.8668 31.4849 11.537 26.1636 10.5426L26.0153 9.61297ZM26.5148 31.7614C25.3041 32.705 23.9565 33.2472 22.5551 33.2472C21.0118 33.2472 19.5282 32.6058 18.2214 31.4936L22.3117 35.696C22.3741 35.6974 22.4369 35.6981 22.4998 35.6981C22.5628 35.6981 22.6255 35.6974 22.688 35.696L26.5148 31.7614Z" fill="white"/>
<path d="M25.8428 8.86926V6.86926H23.132L23.9318 9.45935L25.8428 8.86926ZM26.0153 9.61297L24.0402 9.92767L24.0403 9.92805L26.0153 9.61297ZM28.9277 8.27126L28.9279 6.27126H28.9277V8.27126ZM25.6162 8.27126L23.7952 9.09817L24.3278 10.2713H25.6162V8.27126ZM19.3839 8.27126V10.2713H20.6723L21.205 9.09816L19.3839 8.27126ZM19.1574 8.86926L21.0683 9.45933L21.8681 6.86926H19.1574V8.86926ZM18.9848 9.61297L20.9598 9.92811L20.9599 9.92764L18.9848 9.61297ZM18.8246 10.6171L19.2453 12.5724L20.5839 12.2844L20.7996 10.9323L18.8246 10.6171ZM13.4856 20.6403L15.4856 20.6365L15.4848 20.228L15.3239 19.8525L13.4856 20.6403ZM13.4927 21.0043L12.3476 22.644L15.6401 24.9433L15.4913 20.9302L13.4927 21.0043ZM12.6084 20.7917L11.9467 18.9043L11.9397 18.9067L11.9328 18.9092L12.6084 20.7917ZM12.3815 24.34L14.2607 23.6553L14.2606 23.6551L12.3815 24.34ZM14.8163 26.9234L15.2965 24.9819L14.7432 24.8451L14.201 25.0204L14.8163 26.9234ZM14.963 26.9473L16.7893 26.132L16.3025 25.0415L15.1115 24.9528L14.963 26.9473ZM17.3394 30.6431L16.594 32.499L18.8102 29.2878L17.3394 30.6431ZM16.8711 30.7125L15.5916 29.1754L15.5893 29.1773L16.8711 30.7125ZM16.7259 32.4464L17.4172 34.3231L18.7259 33.841V32.4464H16.7259ZM11 34.5556L10.3087 32.6788L6.60499 34.0432L9.89548 36.2229L11 34.5556ZM34 34.5556L35.1044 36.223L38.3952 34.0432L34.6913 32.6788L34 34.5556ZM28.2742 32.4464H26.2742V33.8411L27.5829 34.3231L28.2742 32.4464ZM28.1288 30.7084L29.4508 29.2076L29.4297 29.189L29.408 29.171L28.1288 30.7084ZM27.7461 30.6139L26.2681 29.2665L22.2008 33.7283L28.1274 32.5772L27.7461 30.6139ZM30.1132 26.9292L29.6936 24.9737L28.7062 25.1856L28.2905 26.106L30.1132 26.9292ZM30.1652 26.9165L30.8336 25.0315L30.2441 24.8225L29.6407 24.9865L30.1652 26.9165ZM32.6202 24.34L30.7416 23.6537L30.7411 23.655L32.6202 24.34ZM32.3934 20.7917L33.0832 18.9144L33.0705 18.9098L33.0578 18.9053L32.3934 20.7917ZM31.7738 20.8484L29.9617 20.0022L27.6839 24.88L32.5939 22.6726L31.7738 20.8484ZM31.8117 20.7674L33.6238 21.6137L33.6284 21.6037L31.8117 20.7674ZM26.1636 10.5426L24.1886 10.8577L24.4107 12.2497L25.7962 12.5086L26.1636 10.5426ZM26.5148 31.7614L27.9485 33.1558L25.2854 30.1839L26.5148 31.7614ZM18.2214 31.4936L19.5176 29.9706L16.7882 32.8886L18.2214 31.4936ZM22.3117 35.696L20.8785 37.091L21.4489 37.6771L22.2666 37.6955L22.3117 35.696ZM22.688 35.696L22.733 37.6955L23.5511 37.6771L24.1217 37.0904L22.688 35.696ZM23.9318 9.45935C23.9771 9.60615 24.0139 9.76256 24.0402 9.92767L27.9904 9.29827C27.9347 8.94883 27.8554 8.60829 27.7537 8.27917L23.9318 9.45935ZM28.9277 6.86926H25.8428V10.8693H28.9277V6.86926ZM27.2518 8.57027C27.2518 7.48234 28.1567 6.86926 28.9277 6.86926V10.8693C30.0567 10.8693 31.2518 9.98843 31.2518 8.57027H27.2518ZM28.9276 10.2713C28.1567 10.2712 27.2518 9.65822 27.2518 8.57027H31.2518C31.2518 7.15209 30.0567 6.27135 28.9279 6.27126L28.9276 10.2713ZM25.6162 10.2713H28.9277V6.27126H25.6162V10.2713ZM22.5 8C22.8401 8 23.4084 8.24636 23.7952 9.09817L27.4373 7.44435C26.5772 5.55038 24.7937 4 22.5 4V8ZM21.205 9.09816C21.5918 8.2463 22.1601 8 22.5 8V4C20.2064 4 18.4228 5.55044 17.5629 7.44436L21.205 9.09816ZM16.0731 10.2713H19.3839V6.27126H16.0731V10.2713ZM17.749 8.57027C17.749 9.65808 16.8442 10.2713 16.0731 10.2713V6.27126C14.944 6.27126 13.749 7.15222 13.749 8.57027H17.749ZM16.0731 6.86926C16.8441 6.86926 17.749 7.48239 17.749 8.57027H13.749C13.749 9.98838 14.944 10.8693 16.0731 10.8693V6.86926ZM19.1574 6.86926H16.0731V10.8693H19.1574V6.86926ZM20.9599 9.92764C20.9862 9.76253 21.023 9.60613 21.0683 9.45933L17.2464 8.2792C17.1448 8.60832 17.0654 8.94886 17.0097 9.2983L20.9599 9.92764ZM20.7996 10.9323L20.9598 9.92811L17.0098 9.29783L16.8496 10.302L20.7996 10.9323ZM14.8104 17.3411C14.8104 16.3918 15.0105 15.4297 15.5749 14.6298C16.113 13.8671 17.1411 13.0252 19.2453 12.5724L18.4039 8.66189C15.5034 9.28601 13.5243 10.5978 12.3065 12.3237C11.115 14.0124 10.8104 15.8738 10.8104 17.3411H14.8104ZM15.3239 19.8525C15.0315 19.1704 14.8104 18.0938 14.8104 17.3411H10.8104C10.8104 18.6327 11.1405 20.2457 11.6473 21.4282L15.3239 19.8525ZM15.4913 20.9302C15.4876 20.8317 15.4857 20.7337 15.4856 20.6365L11.4856 20.6442C11.4858 20.7883 11.4887 20.9331 11.494 21.0784L15.4913 20.9302ZM13.2701 22.679C12.9708 22.784 12.709 22.762 12.5495 22.7227C12.402 22.6863 12.335 22.6353 12.3476 22.644L14.6378 19.3646C14.0786 18.9741 13.0794 18.5072 11.9467 18.9043L13.2701 22.679ZM14.2606 23.6551C14.0235 23.0046 13.9611 22.464 13.9806 22.1582C13.9905 22.002 14.0155 22.0045 13.9683 22.1008C13.9146 22.2103 13.7207 22.5174 13.2839 22.6741L11.9328 18.9092C11.124 19.1995 10.6387 19.8053 10.3763 20.3407C10.1205 20.8628 10.0195 21.4183 9.98863 21.9043C9.9264 22.8828 10.1226 23.9828 10.5025 25.025L14.2606 23.6551ZM14.201 25.0204C14.6335 24.8805 14.9612 24.9997 15.0537 25.0428C15.1386 25.0823 15.1142 25.0922 15.0053 24.9768C14.7915 24.7502 14.4945 24.297 14.2607 23.6553L10.5024 25.0248C10.8789 26.0579 11.4298 27.0159 12.096 27.7219C12.4271 28.0729 12.8508 28.4296 13.3661 28.6694C13.889 28.9127 14.6295 29.0857 15.4316 28.8264L14.201 25.0204ZM15.1115 24.9528C15.1842 24.9582 15.2463 24.9695 15.2965 24.9819L14.3361 28.8649C14.4857 28.9019 14.6457 28.9292 14.8144 28.9418L15.1115 24.9528ZM18.8102 29.2878C18.0481 28.4607 17.352 27.3927 16.7893 26.132L13.1367 27.7626C13.8522 29.3654 14.775 30.8115 15.8687 31.9984L18.8102 29.2878ZM18.1507 32.2496C17.6747 32.6459 17.07 32.6902 16.594 32.499L18.0849 28.7872C17.303 28.4732 16.3315 28.5595 15.5916 29.1754L18.1507 32.2496ZM18.7259 31.0134C18.7259 31.5263 18.4889 31.9672 18.153 32.2477L15.5893 29.1773C15.0683 29.6123 14.7259 30.2729 14.7259 31.0134H18.7259ZM18.7259 32.4464V31.0134H14.7259V32.4464H18.7259ZM11.6913 36.4323L17.4172 34.3231L16.0346 30.5696L10.3087 32.6788L11.6913 36.4323ZM22.4998 35.9634C18.6018 35.9634 15.014 34.8156 12.1045 32.8882L9.89548 36.2229C13.4564 38.5818 17.8118 39.9634 22.4998 39.9634V35.9634ZM32.8956 32.8882C29.9857 34.8156 26.3982 35.9634 22.4998 35.9634V39.9634C27.1882 39.9634 31.5433 38.5818 35.1044 36.223L32.8956 32.8882ZM27.5829 34.3231L33.3087 36.4323L34.6913 32.6788L28.9655 30.5697L27.5829 34.3231ZM26.2742 31.0134V32.4464H30.2742V31.0134H26.2742ZM26.8068 32.2092C26.5171 31.954 26.2742 31.5361 26.2742 31.0134H30.2742C30.2742 30.263 29.9253 29.6256 29.4508 29.2076L26.8068 32.2092ZM28.1274 32.5772C27.7225 32.6558 27.2427 32.5729 26.8496 32.2458L29.408 29.171C28.799 28.6643 28.0339 28.5206 27.3648 28.6506L28.1274 32.5772ZM28.2905 26.106C27.7238 27.3605 27.0284 28.4325 26.2681 29.2665L29.2242 31.9612C30.3062 30.7742 31.2211 29.3351 31.9359 27.7524L28.2905 26.106ZM29.6407 24.9865C29.6568 24.9822 29.6744 24.9778 29.6936 24.9737L30.5328 28.8847C30.5864 28.8732 30.6388 28.8604 30.6898 28.8465L29.6407 24.9865ZM30.7411 23.655C30.505 24.3027 30.2051 24.7564 29.992 24.9797C29.8832 25.0937 29.8627 25.0791 29.9554 25.0375C30.0588 24.9911 30.3984 24.8772 30.8336 25.0315L29.4969 28.8016C30.3017 29.0869 31.0561 28.9278 31.5928 28.687C32.1189 28.4509 32.5504 28.0927 32.886 27.741C33.5614 27.0331 34.1192 26.0674 34.4992 25.025L30.7411 23.655ZM31.7036 22.669C31.27 22.5097 31.0806 22.2043 31.0297 22.0998C30.9843 22.0067 31.0093 22.0071 31.0194 22.1633C31.0391 22.4695 30.9774 23.0082 30.7416 23.6537L34.4987 25.0263C34.8797 23.9836 35.0742 22.8839 35.0111 21.9059C34.9798 21.4201 34.8787 20.8668 34.6251 20.3468C34.366 19.8153 33.8863 19.2095 33.0832 18.9144L31.7036 22.669ZM32.5939 22.6726C32.5002 22.7147 32.1633 22.8311 31.7289 22.6781L33.0578 18.9053C32.2461 18.6193 31.4895 18.7835 30.9537 19.0243L32.5939 22.6726ZM29.9995 19.9212L29.9617 20.0022L33.586 21.6947L33.6238 21.6136L29.9995 19.9212ZM30.5433 17.3411C30.5433 18.1379 30.2976 19.2736 29.9949 19.9311L33.6284 21.6037C34.1855 20.3935 34.5433 18.6835 34.5433 17.3411H30.5433ZM25.7962 12.5086C28.0647 12.9325 29.1664 13.7939 29.7369 14.5707C30.3336 15.3832 30.5433 16.3688 30.5433 17.3411H34.5433C34.5433 15.8391 34.2237 13.9226 32.9609 12.2031C31.6719 10.4478 29.5839 9.14711 26.531 8.57663L25.7962 12.5086ZM24.0403 9.92805L24.1886 10.8577L28.1386 10.2275L27.9903 9.29789L24.0403 9.92805ZM22.5551 35.2472C24.493 35.2472 26.2616 34.4945 27.7443 33.3389L25.2854 30.1839C24.3467 30.9155 23.42 31.2472 22.5551 31.2472V35.2472ZM16.9251 33.0167C18.5072 34.3632 20.4345 35.2472 22.5551 35.2472V31.2472C21.5892 31.2472 20.5491 30.8484 19.5176 29.9706L16.9251 33.0167ZM23.7448 34.301L19.6545 30.0987L16.7882 32.8886L20.8785 37.091L23.7448 34.301ZM22.4998 33.6981C22.4519 33.6981 22.4041 33.6976 22.3567 33.6965L22.2666 37.6955C22.3441 37.6972 22.4219 37.6981 22.4998 37.6981V33.6981ZM22.643 33.6965C22.5955 33.6976 22.5478 33.6981 22.4998 33.6981V37.6981C22.5778 37.6981 22.6555 37.6972 22.733 37.6955L22.643 33.6965ZM25.0811 30.3669L21.2543 34.3015L24.1217 37.0904L27.9485 33.1558L25.0811 30.3669Z" fill="#566A96" mask="url(#path-2-inside-1_346_215)"/>
<defs>
<filter id="filter0_if_346_215" x="0.5" y="0.5" width="48.5" height="48.5" filterUnits="userSpaceOnUse" color-interpolation-filters="sRGB">
<feFlood flood-opacity="0" result="BackgroundImageFix"/>
<feBlend mode="normal" in="SourceGraphic" in2="BackgroundImageFix" result="shape"/>
<feColorMatrix in="SourceAlpha" type="matrix" values="0 0 0 0 0 0 0 0 0 0 0 0 0 0 0 0 0 0 127 0" result="hardAlpha"/>
<feOffset dx="4" dy="4"/>
<feGaussianBlur stdDeviation="2"/>
<feComposite in2="hardAlpha" operator="arithmetic" k2="-1" k3="1"/>
<feColorMatrix type="matrix" values="0 0 0 0 0.864125 0 0 0 0 0.910238 0 0 0 0 0.93 0 0 0 0.25 0"/>
<feBlend mode="normal" in2="shape" result="effect1_innerShadow_346_215"/>
<feGaussianBlur stdDeviation="0.25" result="effect2_foregroundBlur_346_215"/>
</filter>
</defs>
</svg>
