<svg width="46" height="46" viewBox="0 0 46 46" fill="none" xmlns="http://www.w3.org/2000/svg">
<g filter="url(#filter0_if_346_211)">
<rect x="1" y="1" width="44" height="44" rx="10" fill="#F3F8FB"/>
</g>
<path d="M39 34.3476V35.9645H7V34.3476C7 33.5609 7.65382 32.9002 8.46377 32.9002H37.5362C38.3434 32.9002 39 33.5619 39 34.3476ZM25.6609 28.8185H34.7509V29.8797H11.2491V28.8185H20.3315H20.9938L21.2523 28.2088C21.482 27.6668 21.612 27.0865 21.612 26.4781C21.612 24.8761 21.1759 23.232 19.4964 22.0403L19.4481 22.006L19.396 21.9776C17.0675 20.7095 15.4943 18.2586 15.4943 15.4456C15.4943 11.3389 18.8459 8 22.9962 8C27.1465 8 30.4981 11.3389 30.4981 15.4456C30.4981 18.2593 28.9282 20.7096 26.597 21.9773L26.544 22.0061L26.4949 22.0411C24.8213 23.232 24.3804 24.8742 24.3804 26.4781C24.3804 27.0865 24.5104 27.6668 24.7402 28.2088L24.9986 28.8185H25.6609Z" fill="white" stroke="#566A96" stroke-width="2"/>


<defs>
<filter id="filter0_if_346_211" x="0.5" y="0.5" width="48.5" height="48.5" filterUnits="userSpaceOnUse" color-interpolation-filters="sRGB">
<feFlood flood-opacity="0" result="BackgroundImageFix"/>
<feBlend mode="normal" in="SourceGraphic" in2="BackgroundImageFix" result="shape"/>
<feColorMatrix in="SourceAlpha" type="matrix" values="0 0 0 0 0 0 0 0 0 0 0 0 0 0 0 0 0 0 127 0" result="hardAlpha"/>
<feOffset dx="4" dy="4"/>
<feGaussianBlur stdDeviation="2"/>
<feComposite in2="hardAlpha" operator="arithmetic" k2="-1" k3="1"/>
<feColorMatrix type="matrix" values="0 0 0 0 0.864125 0 0 0 0 0.910238 0 0 0 0 0.93 0 0 0 0.25 0"/>
<feBlend mode="normal" in2="shape" result="effect1_innerShadow_346_211"/>
<feGaussianBlur stdDeviation="0.25" result="effect2_foregroundBlur_346_211"/>
</filter>
</defs>
</svg>
